<svg width="400" height="400" viewBox="0 0 400 400" fill="none" xmlns="http://www.w3.org/2000/svg">
<path d="M150 175C163.807 175 175 163.807 175 150C175 136.193 163.807 125 150 125C136.193 125 125 136.193 125 150C125 163.807 136.193 175 150 175Z" fill="#F8F8F8"/>
<path d="M250 175C263.807 175 275 163.807 275 150C275 136.193 263.807 125 250 125C236.193 125 225 136.193 225 150C225 163.807 236.193 175 250 175Z" fill="#F8F8F8"/>
<path d="M200 375C103.5 375 25 296.5 25 200C25 103.5 103.5 25 200 25C296.5 25 375 103.5 375 200C375 296.5 296.5 375 200 375ZM200 50C117.25 50 50 117.25 50 200C50 282.75 117.25 350 200 350C282.75 350 350 282.75 350 200C350 117.25 282.75 50 200 50Z" fill="#F8F8F8"/>
<path d="M270.75 287.5C265.5 287.5 260.75 284.25 259 279.25C254.7 267.036 246.715 256.458 236.147 248.974C225.579 241.491 212.949 237.473 200 237.473C187.051 237.473 174.421 241.491 163.853 248.974C153.285 256.458 145.3 267.036 141 279.25C138.75 285.75 131.5 289.25 125 286.75C123.443 286.211 122.01 285.366 120.786 284.264C119.561 283.162 118.57 281.826 117.871 280.334C117.172 278.842 116.779 277.226 116.715 275.58C116.651 273.933 116.918 272.291 117.5 270.75C129.75 235.75 163 212.5 200 212.5C237 212.5 270.25 236 282.5 270.75C283.176 272.637 283.39 274.659 283.122 276.646C282.855 278.633 282.114 280.527 280.963 282.168C279.812 283.809 278.283 285.15 276.506 286.078C274.729 287.006 272.755 287.493 270.75 287.5Z" fill="#F8F8F8"/>
</svg>
